<svg height="464pt" viewBox="0 0 464 464" width="464pt" xmlns="http://www.w3.org/2000/svg"><path d="m120 368v-32h48v32h-16v32h16v32h-48v-32h-40v-32zm0 0" fill="#808080"/><path d="m112 184v-16h-24v-48h-32v48h-24v16h24v16h-24v16h24v232c0 8.835938 7.164062 16 16 16s16-7.164062 16-16v-232h24v-16h-24v-16zm0 0" fill="#b3b3b3"/><path d="m152 56c9.183594-.019531 18.359375.660156 27.441406 2.03125 1.695313-5.230469 3.984375-10.246094 6.832032-14.953125-11.308594-2.046875-22.78125-3.078125-34.273438-3.078125-4.167969 0-8.359375.175781-12.535156.441406 2 5.054688 3.34375 10.351563 4 15.75 2.78125-.121094 5.613281-.191406 8.535156-.191406zm0 0" fill="#b3b3b3"/><path d="m90.3125 91.367188c12.636719 6.382812 26.386719 10.269531 40.496094 11.441406 8.554687-11.128906 13.195312-24.773438 13.191406-38.808594-.015625-2.609375-.1875-5.21875-.519531-7.808594-3.941407-32.070312-31.167969-56.1718748-63.480469-56.191406h-16c-35.347656 0-64 28.652344-64 64s28.652344 64 64 64h16c12.984375.011719 25.664062-3.945312 36.335938-11.34375-19.75-3.792969-36.800782-10.800781-45.734376-20.800781-21.503906-.714844-38.574218-18.339844-38.601562-39.855469 0-13.253906 10.746094-24 24-24l16 16 16-16c13.183594.167969 23.832031 10.816406 24 24-.0625 1.550781-.21875 3.09375-.464844 4.625-1.519531 13.140625-9.472656 24.664062-21.222656 30.742188zm0 0" fill="#ffa900"/><path d="m392 8h-144c-22.996094.003906-44.605469 10.988281-58.15625 29.5625-13.554688 18.574219-17.417969 42.507812-10.402344 64.40625 11.144532-1.464844 21.992188-4.660156 32.152344-9.472656-6.40625-10.140625-4.621094-23.414063 4.238281-31.496094 8.863281-8.085938 22.242188-8.648438 31.753907-1.34375 9.511718 7.308594 12.410156 20.382812 6.882812 31.027344-5.527344 10.644531-17.894531 15.789062-29.339844 12.210937-11.917968 7.171875-25.117187 11.941407-38.863281 14.042969 12.96875 21.742188 36.417969 35.0625 61.734375 35.0625h144c39.765625 0 72-32.234375 72-72s-32.234375-72-72-72zm0 0" fill="#6cbbc7"/><g fill="#e6e6e6"><path d="m225.136719 57.121094c-5.636719 1.683594-10.457031 5.386718-13.535157 10.398437 7.972657 4.082031 12.398438 8.625 12.398438 12.480469s-4.425781 8.398438-12.398438 12.496094c-10.160156 4.8125-21.007812 8.007812-32.152343 9.472656-9.085938 1.371094-18.261719 2.050781-27.449219 2.03125-7.082031.003906-14.15625-.394531-21.191406-1.191406-14.109375-1.171875-27.859375-5.058594-40.496094-11.441406-6.65625-3.78125-10.3125-7.855469-10.3125-11.367188 0-6.289062 11.617188-14.398438 31.535156-19.375.246094-1.53125.402344-3.074219.464844-4.625-.023438-3.878906-1-7.691406-2.839844-11.105469-25.535156 6.160157-45.160156 18.035157-45.160156 35.105469.128906 5.929688 2.488281 11.589844 6.609375 15.855469 8.902344 9.992187 25.984375 17 45.734375 20.800781 11.753906 2.226562 23.691406 3.347656 35.65625 3.34375 11.492188 0 22.964844-1.03125 34.273438-3.078125 13.746093-2.101563 26.945312-6.871094 38.863281-14.042969 8.558593-4.5625 14.171875-13.203125 14.863281-22.878906-.691406-9.675781-6.304688-18.316406-14.863281-22.878906zm0 0"/><path d="m288 40h104c22.089844 0 40 17.910156 40 40s-17.910156 40-40 40h-104zm0 0"/></g></svg>